<?xml version="1.0" encoding="UTF-8"?>
<svg width="80px" height="43px" viewBox="0 0 80 43" version="1.1" xmlns="http://www.w3.org/2000/svg" xmlns:xlink="http://www.w3.org/1999/xlink">
    <!-- Generator: Sketch 52.5 (67469) - http://www.bohemiancoding.com/sketch -->
    <title>logo</title>
    <desc>Created with Sketch.</desc>
    <defs>
        <linearGradient x1="-1.11022302e-14%" y1="50%" x2="100%" y2="50%" id="linearGradient-1">
            <stop stop-color="#3C4040" offset="0%"></stop>
            <stop stop-color="#1C1E1E" offset="100%"></stop>
        </linearGradient>
    </defs>
    <g id="Page-1" stroke="none" stroke-width="1" fill="none" fill-rule="evenodd">
        <g id="Desktop-HD-Copy" transform="translate(-114.000000, -20.000000)" fill="url(#linearGradient-1)">
            <g id="logo" transform="translate(114.000000, 20.000000)">
                <g id="Group">
                    <path d="M38.3177165,41.5871429 C37.7939043,41.5871429 39.3744849,41.9147635 38.9935306,41.5871429 C38.6125763,41.2595222 38.3177165,40.6775556 38.3177165,40.2270771 C37.4672556,40.3003803 37.0420252,40.3003803 37.0420252,40.2270771 C37.0420252,31.4819676 36.2423025,18.6257991 34.6428571,1.65857143 C34.6428571,1.20809299 34.8333314,0.819049257 35.2142857,0.491428571 C35.59524,0.163807886 36.0476164,0 36.5714286,0 L47.8571429,0 C49.1904829,0 50.1666636,0.470947671 50.7857143,1.41285714 L62.8571429,18.4285714 L62.8571429,1.65857143 C62.8571429,1.20809299 63.0476171,0.819049257 63.4285714,0.491428571 C63.8095257,0.163807886 64.2619021,0 64.7857143,0 L77.7142857,0 C78.2380979,0 78.6904743,0.163807886 79.0714286,0.491428571 C79.4523829,0.819049257 79.6428571,1.20809299 79.6428571,1.65857143 L79.6428571,41.3414286 C79.6428571,41.791907 79.4523829,42.1809507 79.0714286,42.5085714 C78.6904743,42.8361921 78.2380979,43 77.7142857,43 L66.4285714,43 C65.6190436,43 65.0000021,42.8566681 64.5714286,42.57 C64.142855,42.2833319 63.7857157,41.9557161 63.5,41.5871429 L51.4285714,25.9228571 L51.4285714,41.3414286 C51.4285714,41.791907 51.2380971,42.1809507 50.8571429,42.5085714 C50.4761886,42.8361921 50.0238121,43 49.5,43 L38.3177165,41.5871429 Z" id="N"></path>
                    <path d="M1.57142857,43 C1.142855,43 0.773811071,42.8669061 0.464285714,42.6007143 C0.154760357,42.3345225 0,42.0171447 0,41.6485714 C0,41.4847611 0.0238092857,41.3414292 0.0714285714,41.2185714 L16,2.02714286 C16.1904771,1.49475924 16.5476164,1.02381157 17.0714286,0.614285714 C17.5952407,0.204759857 18.3095193,0 19.2142857,0 L34.7142857,0 C35.6190521,0 36.3333307,0.204759857 36.8571429,0.614285714 C37.380955,1.02381157 37.7380943,1.49475924 37.9285714,2.02714286 L53.8571429,41.2185714 C53.9047621,41.3414292 53.9285714,41.4847611 53.9285714,41.6485714 C53.9285714,42.0171447 53.7738111,42.3345225 53.4642857,42.6007143 C53.1547604,42.8669061 52.7857164,43 52.3571429,43 L39.1428571,43 C37.7142786,43 36.7857164,42.4881004 36.3571429,41.4642857 L34.6428571,37.41 L19.2857143,37.41 L17.5714286,41.4642857 C17.142855,42.4881004 16.2142929,43 14.7857143,43 L1.57142857,43 Z M22.9285714,25.4314286 L31,25.4314286 L26.9285714,14.0057143 L22.9285714,25.4314286 Z" id="A"></path>
                </g>
            </g>
        </g>
    </g>
</svg>