<?xml version="1.0" encoding="UTF-8"?>
<svg width="126px" height="36px" viewBox="0 0 126 36" version="1.1" xmlns="http://www.w3.org/2000/svg" xmlns:xlink="http://www.w3.org/1999/xlink">
    <!-- Generator: Sketch 52.5 (67469) - http://www.bohemiancoding.com/sketch -->
    <title>mongodb</title>
    <desc>Created with Sketch.</desc>
    <g id="Page-1" stroke="none" stroke-width="1" fill="none" fill-rule="evenodd">
        <g id="Desktop-HD-Copy" transform="translate(-949.000000, -2240.000000)">
            <g id="mongodb" transform="translate(949.000000, 2240.000000)">
                <path d="M117.31609,14.9086849 C117.202887,14.9313699 117.089191,15.1816438 117.089191,15.318 C117.066551,16.2283562 117.04391,18.6403562 117.04391,20.2786027 C117.04391,20.3242192 117.111832,20.4152055 117.18,20.4152055 C117.520594,20.4378904 118.338117,20.4605753 119.042191,20.4605753 C120.018691,20.4605753 120.58643,20.3242192 120.904629,20.187863 C121.721906,19.7780548 122.108027,18.8906301 122.108027,17.9119726 C122.108027,15.7051233 120.563789,14.8630685 118.269949,14.8630685 C118.110973,14.8403836 117.657176,14.8403836 117.31609,14.9086849 Z M123.175582,25.0799178 C123.175582,22.8272055 121.517648,21.575589 118.51998,21.575589 C118.383645,21.575589 117.429785,21.5529041 117.202641,21.598274 C117.134473,21.6212055 117.04391,21.6668219 117.04391,21.7351233 C117.04391,23.3504384 117.021023,25.9219726 117.089191,26.9230685 C117.134473,27.3553151 117.452672,27.9697808 117.838793,28.1517534 C118.247309,28.3793425 119.178527,28.4247123 119.814434,28.4247123 C121.608457,28.4247123 123.175582,27.4236164 123.175582,25.0799178 Z M112.683621,13.6573151 C112.91052,13.6573151 113.591707,13.7253699 115.340449,13.7253699 C116.998383,13.7253699 118.315477,13.68 119.927883,13.68 C121.903523,13.68 124.628766,14.3852055 124.628766,17.3433699 C124.628766,18.7996438 123.606738,19.960274 122.267004,20.5291233 C122.199082,20.5518082 122.199082,20.5971781 122.267004,20.619863 C124.174477,21.0979726 125.855297,22.2810411 125.855297,24.5108219 C125.855297,26.6954795 124.492676,28.0834521 122.516789,28.9481918 C121.313145,29.4714247 119.814434,29.6533973 118.292836,29.6533973 C117.134473,29.6533973 114.023355,29.5170411 112.2975,29.5626575 C112.115883,29.4941096 112.456477,28.6749863 112.615207,28.5386301 C113.024215,28.5156986 113.341922,28.4930137 113.77357,28.356411 C114.386836,28.1973699 114.454758,28.0151507 114.545566,27.0823562 C114.591094,26.2859178 114.591094,23.4641096 114.591094,21.4619178 C114.591094,18.7086575 114.61398,16.8428219 114.591094,15.9327123 C114.568453,15.2275068 114.318668,14.9996712 113.819098,14.8630685 C113.43273,14.7950137 112.79707,14.7037808 112.274613,14.635726 C112.160918,14.5218082 112.547039,13.7480548 112.683621,13.6573151 Z M99.5796211,27.8104932 C100.124965,28.2424932 101.192273,28.4244658 102.146133,28.4244658 C103.372418,28.4244658 104.598703,28.1973699 105.779707,27.1274795 C106.983352,26.0356438 107.823516,24.3517808 107.823516,21.6668219 C107.823516,19.0952877 106.847016,17.001863 104.848488,15.7734247 C103.713012,15.067726 102.259582,14.7723288 100.579008,14.7723288 C100.079438,14.7723288 99.6025078,14.7950137 99.3074414,14.9313699 C99.2390273,14.9769863 99.0802969,15.1816438 99.0802969,15.2953151 C99.0347695,15.7504932 99.0347695,19.2545753 99.0347695,21.3026301 C99.0347695,23.4187397 99.0347695,26.3769041 99.0802969,26.7181644 C99.0802969,27.0596712 99.2390273,27.5829041 99.5798672,27.8104932 L99.5796211,27.8104932 Z M94.4244492,13.6570685 C94.8560977,13.6570685 96.5137852,13.7253699 97.308668,13.7253699 C98.7397031,13.7253699 99.7614844,13.6573151 102.46384,13.6573151 C104.734793,13.6573151 106.642512,14.2715342 108.005133,15.4319178 C109.66282,16.8655068 110.526117,18.8452603 110.526117,21.2570137 C110.526117,24.6930411 108.958992,26.6727945 107.391867,27.8104932 C105.825234,28.9708767 103.78118,29.6533973 100.87432,29.6533973 C99.330082,29.6533973 96.6730078,29.6080274 94.4699766,29.5850959 L94.4473359,29.5850959 C94.3338867,29.3804384 94.6289531,28.584 94.8105703,28.5613151 C95.4011953,28.4930137 95.5601719,28.4700822 95.8554844,28.3566575 C96.332168,28.1744384 96.4232227,27.9241644 96.4913906,27.0823562 C96.5593125,25.5121644 96.5366719,23.6236438 96.5366719,21.4846027 C96.5366719,19.960274 96.5593125,16.9791781 96.5137852,16.0234521 C96.4458633,15.2272603 96.1052695,15.0223562 95.4238359,14.8857534 C95.0832422,14.8176986 94.6289531,14.7264658 93.993293,14.658411 C93.9022383,14.4988767 94.311,13.7936712 94.4244492,13.6573151 L94.4244492,13.6570685 Z" id="Shape" fill="#8E714E" fill-rule="nonzero"></path>
                <path d="M66.9456211,28.6976712 C66.3778828,28.6293699 65.9691211,28.5386301 65.4695508,28.3110411 C65.4013828,28.2654247 65.2876875,28.0380822 65.2876875,27.9468493 C65.2424063,27.150411 65.2424063,24.8750137 65.2424063,23.3506849 C65.2424063,22.1217534 65.0381484,21.0523562 64.5156914,20.3015342 C63.9024258,19.4365479 63.0169805,18.9362466 61.8812578,18.9362466 C60.8821172,18.9362466 59.5421367,19.6187671 58.4293008,20.5744932 C58.4066602,20.5971781 58.225043,20.7567123 58.2476836,20.5061918 C58.2476836,20.2559178 58.2932109,19.7553699 58.3158516,19.413863 C58.3387383,19.0952877 58.156875,18.9362466 58.156875,18.9362466 C57.4301602,19.3001918 55.3863516,19.7780548 54.63675,19.8461096 C54.0918984,19.960274 53.9555625,20.4835068 54.5235469,20.6654795 L54.5461875,20.6654795 C55.1589609,20.8474521 55.5679688,21.0523562 55.8856758,21.2572603 C56.1128203,21.4392329 56.0901797,21.6895068 56.0901797,21.894411 C56.1128203,23.6007123 56.1128203,26.2176164 56.0448984,27.6512055 C56.0222578,28.2200548 55.8632813,28.4247123 55.4542734,28.5156986 L55.4998008,28.4930137 C55.1818477,28.5613151 54.9320625,28.6293699 54.5459414,28.6749863 C54.4096055,28.811589 54.4096055,29.539726 54.5459414,29.6990137 C54.7957266,29.6990137 56.1128203,29.6307123 57.2032617,29.6307123 C58.7019727,29.6307123 59.4742148,29.6990137 59.8600898,29.6990137 C60.0190664,29.5170411 60.0645938,28.834274 59.9737852,28.6749863 C59.5421367,28.6523014 59.2241836,28.6069315 58.9291172,28.5156986 C58.5203555,28.4244658 58.4066602,28.2200548 58.3837734,27.7421918 C58.3387383,26.5359452 58.3387383,23.987589 58.3387383,22.2583562 C58.3387383,21.7804932 58.4748281,21.5529041 58.610918,21.4163014 C59.133375,20.9613699 59.9737852,20.6427945 60.7231406,20.6427945 C61.4498555,20.6427945 61.9265391,20.8703836 62.2900195,21.166274 C62.7895898,21.575589 62.9485664,22.1673699 63.0167344,22.5996164 C63.1301836,23.5780274 63.0849023,25.5121644 63.0849023,27.1960274 C63.0849023,28.106137 63.0167344,28.333726 62.6763867,28.4473973 C62.5171641,28.5156986 62.1084023,28.6069315 61.6314727,28.6520548 C61.4724961,28.811589 61.5180234,29.5170411 61.6314727,29.6763288 C62.2900195,29.6763288 63.0622617,29.6080274 64.1977383,29.6080274 C65.6056406,29.6080274 66.5142188,29.6763288 66.8776992,29.6763288 C66.9909023,29.539726 67.0364297,28.8798904 66.9456211,28.6976712 Z M73.2362695,20.0058904 C72.0328711,20.0058904 71.2832695,20.9386849 71.2832695,22.3947123 C71.2832695,23.8739178 71.9418164,25.5804658 73.8040078,25.5804658 C74.1219609,25.5804658 74.7125859,25.443863 74.9847656,25.1252877 C75.4164141,24.7159726 75.7117266,23.8966027 75.7117266,23.031863 C75.7117266,21.1433425 74.7805078,20.0056438 73.2362695,20.0056438 L73.2362695,20.0058904 Z M73.077293,30.0629589 C72.62325,30.0629589 72.3050508,30.1995616 72.100793,30.3134795 C71.1469336,30.9274521 70.7155313,31.5192329 70.7155313,32.2249315 C70.7155313,32.8845205 70.9653164,33.4077534 71.5104141,33.8629315 C72.1689609,34.4317808 73.077293,34.7049863 74.2354102,34.7049863 C76.5518906,34.7049863 77.573918,33.4533699 77.573918,32.2249315 C77.573918,31.3599452 77.1422695,30.7910959 76.2568242,30.4727671 C75.620918,30.1995616 74.4628008,30.0629589 73.077293,30.0629589 Z M73.2362695,35.9792877 C71.8510078,35.9792877 70.8516211,35.6833973 69.9888164,35.0235616 C69.1484063,34.386411 68.7851719,33.4306849 68.7851719,32.7708493 C68.7851719,32.5888767 68.8306992,32.0880822 69.2394609,31.6331507 C69.489,31.3599452 70.0343438,30.8367123 71.3287969,29.9492877 C71.3740781,29.9266027 71.3967188,29.9039178 71.3967188,29.8580548 C71.3967188,29.8126849 71.3511914,29.7670685 71.3059102,29.7446301 C70.2386016,29.3350685 69.9206484,28.6749863 69.8295938,28.3110411 L69.8295938,28.2654247 C69.8071992,28.1288219 69.7616719,27.9924658 69.9661758,27.855863 C70.1251523,27.7421918 70.3522969,27.605589 70.6018359,27.4465479 C70.987957,27.2187123 71.3967188,26.9684384 71.6465039,26.7635342 C71.6920313,26.7181644 71.6920313,26.6727945 71.6920313,26.6271781 C71.6920313,26.5815616 71.6465039,26.5359452 71.6009766,26.5135068 C70.0117031,25.9900274 69.2168203,24.8067123 69.2168203,23.031863 C69.2168203,21.8714795 69.7390313,20.8247671 70.6700039,20.1649315 C71.3059102,19.6643836 72.8956758,19.0499178 73.9403438,19.0499178 L74.0085117,19.0499178 C75.0758203,19.0726027 75.6661992,19.3001918 76.5063633,19.5960822 C76.9606523,19.7553699 77.3923008,19.8234247 77.9829258,19.8234247 C78.8683711,19.8234247 79.2544922,19.5504658 79.5721992,19.232137 C79.5950859,19.2775068 79.6406133,19.3914247 79.6632539,19.6870685 C79.6858945,19.9829589 79.5950859,20.4152055 79.3679414,20.7337808 C79.1863242,20.9840548 78.7775625,21.166274 78.3688008,21.166274 L78.2551055,21.166274 C77.8463438,21.1206575 77.6644805,21.0750411 77.6644805,21.0750411 L77.573918,21.1206575 C77.5512773,21.166274 77.573918,21.2116438 77.5965586,21.2799452 L77.6194453,21.3255616 C77.6647266,21.5302192 77.7555352,22.1444384 77.7555352,22.3039726 C77.7555352,24.1698082 77.0061797,24.9886849 76.2112969,25.6031507 C75.4390547,26.172 74.5536094,26.5359452 73.5542227,26.6271781 C73.531582,26.6271781 73.4410195,26.6271781 73.2362695,26.649863 C73.1228203,26.649863 72.9638438,26.6727945 72.940957,26.6727945 L72.9183164,26.6727945 C72.7366992,26.7181644 72.2826563,26.9457534 72.2826563,27.3323836 C72.2826563,27.6736438 72.4869141,28.0834521 73.4634141,28.1517534 C73.6676719,28.1744384 73.8719297,28.1744384 74.0993203,28.1973699 C75.3937734,28.2881096 77.0061797,28.4020274 77.7555352,28.6523014 C78.8002031,29.0389315 79.45875,29.9719726 79.45875,31.0869863 C79.45875,32.7710959 78.2553516,34.3410411 76.2568242,35.3192055 C75.2803242,35.7516986 74.3035781,35.9792877 73.2362695,35.9792877 Z M86.1808008,20.1195616 C85.7041172,20.1195616 85.2724688,20.2329863 84.9545156,20.4605753 C84.0690703,21.0067397 83.6147813,22.0990685 83.6147813,23.6916986 C83.6147813,26.6727945 85.1134922,28.7662192 87.2483555,28.7662192 C87.8842617,28.7662192 88.383832,28.584 88.8152344,28.2200548 C89.4737813,27.6736438 89.8146211,26.5815616 89.8146211,25.0569863 C89.8146211,22.0990685 88.3383047,20.1193151 86.1810469,20.1193151 L86.1808008,20.1195616 Z M86.5898086,29.8583014 C82.7290898,29.8583014 81.3438281,27.0140548 81.3438281,24.3517808 C81.3438281,22.4859452 82.0931836,21.0523562 83.5918945,20.0283288 C84.6594492,19.3684932 85.9312617,19.0045479 87.0667383,19.0045479 C90.0188789,19.0045479 92.0855742,21.1206575 92.0855742,24.1698082 C92.0855742,26.2403014 91.2680508,27.8785479 89.7009258,28.8798904 C88.9515703,29.3804384 87.6571172,29.8583014 86.5895625,29.8583014 L86.5898086,29.8583014 Z M46.1206758,20.1193151 C45.6437461,20.1193151 45.2123438,20.2329863 44.8941445,20.4605753 C44.0086992,21.0067397 43.5544102,22.0990685 43.5544102,23.6916986 C43.5544102,26.6727945 45.0531211,28.7662192 47.1879844,28.7662192 C47.8238906,28.7662192 48.3234609,28.584 48.7551094,28.2200548 C49.4134102,27.6736438 49.75425,26.5815616 49.75425,25.0569863 C49.75425,22.0990685 48.3008203,20.1193151 46.1206758,20.1193151 Z M46.5294375,29.8583014 C42.6687188,29.8583014 41.283457,27.0140548 41.283457,24.3517808 C41.283457,22.4859452 42.0328125,21.0523562 43.5315234,20.0283288 C44.5990781,19.3684932 45.8708906,19.0045479 47.0063672,19.0045479 C49.9587539,19.0045479 52.0252031,21.1206575 52.0252031,24.1698082 C52.0252031,26.2403014 51.2076797,27.8785479 49.6405547,28.8798904 C48.9138398,29.3804384 47.6193867,29.8583014 46.5294375,29.8583014 Z M20.5719609,29.6307123 C20.5264336,29.5626575 20.4809062,29.3577534 20.503793,29.1074795 C20.503793,28.9252603 20.5493203,28.811589 20.5719609,28.7662192 C21.0488906,28.6976712 21.2986758,28.6293699 21.5711016,28.5613151 C22.0253906,28.4473973 22.2070078,28.1973699 22.2296484,27.6285205 C22.2980625,26.2632329 22.2980625,23.6690137 22.2751758,21.8714795 L22.2751758,21.825863 C22.2751758,21.6212055 22.2751758,21.3706849 22.0253906,21.1887123 C21.6619102,20.9613699 21.2305078,20.7567123 20.6627695,20.5969315 C20.4585117,20.5291233 20.3221758,20.4152055 20.3448164,20.2788493 C20.3448164,20.1422466 20.4811523,19.9829589 20.7764648,19.9373425 C21.5258203,19.8690411 23.4785742,19.3914247 24.2508164,19.0499178 C24.2963438,19.0952877 24.3645117,19.232137 24.3645117,19.4141096 L24.3418711,19.664137 C24.3189844,19.9146575 24.2963438,20.2105479 24.2963438,20.5061918 C24.2963438,20.5971781 24.3873984,20.6654795 24.4779609,20.6654795 C24.5234883,20.6654795 24.5690156,20.6427945 24.6142969,20.619863 C26.0677266,19.4821644 27.3848203,19.0726027 28.0660078,19.0726027 C29.1790898,19.0726027 30.0421406,19.5960822 30.7006875,20.6881644 C30.7459688,20.7567123 30.7914961,20.7793973 30.8596641,20.7793973 C30.9049453,20.7793973 30.9728672,20.7567123 30.9957539,20.7110959 C32.3357344,19.6870685 33.6757148,19.0726027 34.5611602,19.0726027 C36.6731367,19.0726027 37.9223086,20.6427945 37.9223086,23.3050685 C37.9223086,24.0558904 37.9223086,25.0343014 37.899668,25.9219726 C37.899668,26.7181644 37.8770273,27.4463014 37.8770273,27.9697808 C37.8770273,28.0832055 38.0357578,28.4473973 38.285543,28.5156986 C38.6034961,28.6749863 39.0351445,28.7432877 39.6028828,28.834274 L39.6255234,28.834274 C39.6710508,28.9935616 39.5802422,29.5850959 39.4894336,29.6990137 C39.3530977,29.6990137 39.1485938,29.6990137 38.9216953,29.6763288 C38.3468145,29.646275 37.7712564,29.6310645 37.1955938,29.6307123 C35.7876914,29.6307123 35.0609766,29.6533973 34.3566563,29.6990137 C34.3116211,29.5170411 34.2887344,28.9708767 34.3566563,28.834274 C34.7656641,28.7662192 34.9699219,28.6976712 35.2199531,28.6296164 C35.6742422,28.4930137 35.7876914,28.2881096 35.8105781,27.6965753 C35.8105781,27.2643288 35.9011406,23.5780274 35.7648047,22.6906027 C35.6287148,21.7804932 34.9472813,20.7110959 33.4483242,20.7110959 C32.8805859,20.7110959 31.9951406,20.9386849 31.1320898,21.598274 C31.0868086,21.6438904 31.0410352,21.7575616 31.0410352,21.825863 L31.0410352,21.8487945 C31.1320898,22.326411 31.1320898,22.8728219 31.1320898,23.7146301 L31.1320898,25.193589 C31.1320898,26.2176164 31.1092031,27.1733425 31.1320898,27.9012329 C31.1320898,28.4020274 31.4274023,28.5156986 31.6771875,28.6069315 C31.8135234,28.6293699 31.9040859,28.6523014 32.0177812,28.6749863 C32.2220391,28.7206027 32.426543,28.7662192 32.7444961,28.834274 C32.7900234,28.9255068 32.7900234,29.2211507 32.7218555,29.4714247 C32.6989687,29.6080274 32.6534414,29.6760822 32.6308008,29.6990137 C31.8588047,29.6763288 31.0639219,29.6533973 29.9058047,29.6533973 C29.5652109,29.6533973 28.9745859,29.6763288 28.4750156,29.6763288 C28.0660078,29.6763288 27.6801328,29.6990137 27.4532344,29.6990137 C27.4303477,29.6533973 27.3848203,29.4943562 27.3848203,29.2438356 C27.3848203,29.0391781 27.4303477,28.8798904 27.475875,28.834274 C27.5893242,28.811589 27.6801328,28.7889041 27.7938281,28.7889041 C28.0660078,28.7432877 28.2933984,28.6976712 28.5202969,28.6523014 C28.9066641,28.5386301 29.0427539,28.333726 29.0653945,27.8331781 C29.1335625,26.6954795 29.2017305,23.4416712 29.0427539,22.6223014 C28.7703281,21.3026301 28.0209727,20.6427945 26.817082,20.6427945 C26.1132539,20.6427945 25.2273164,20.9840548 24.5008477,21.5304658 C24.3871523,21.6212055 24.2963437,21.8485479 24.2963437,22.0534521 L24.2963437,23.3960548 C24.2963437,25.0343014 24.2963437,27.0823562 24.3189844,27.9697808 C24.3418711,28.2424932 24.4324336,28.5613151 24.9548906,28.6749863 C25.0685859,28.6976712 25.2502031,28.7432877 25.4773477,28.7662192 L25.8858633,28.834274 C25.9316367,28.9708767 25.90875,29.5170411 25.8179414,29.6990137 C25.5907969,29.6990137 25.3183711,29.6763288 25.0001719,29.6763288 C24.5234883,29.6533973 23.9102227,29.6307123 23.2290352,29.6307123 C22.4341523,29.6307123 21.8664141,29.6533973 21.412125,29.6763288 C21.0941719,29.6307123 20.8443867,29.6307123 20.5719609,29.6307123 Z" id="Shape" fill="#442D22" fill-rule="nonzero"></path>
                <path d="M8.62632422,35.091863 L7.69535156,34.7730411 C7.69535156,34.7730411 7.80904687,30.017589 6.10558594,29.6763288 C4.97035547,28.356411 6.28769531,-26.2994795 10.3753125,29.4941096 C10.3753125,29.4941096 8.96716406,30.1993151 8.71737891,31.4055616 C8.44470703,32.5888767 8.62632422,35.091863 8.62632422,35.091863 Z" id="Path" fill="#FFFFFF"></path>
                <path d="M8.62632422,35.091863 L7.69535156,34.7730411 C7.69535156,34.7730411 7.80904687,30.017589 6.10558594,29.6763288 C4.97035547,28.356411 6.28769531,-26.2994795 10.3753125,29.4941096 C10.3753125,29.4941096 8.96716406,30.1993151 8.71737891,31.4055616 C8.44470703,32.5888767 8.62632422,35.091863 8.62632422,35.091863 Z" id="Path" fill="#A6A385"></path>
                <path d="M9.12614063,30.4954521 C9.12614063,30.4954521 17.2792266,25.1252877 15.3712617,13.9527123 C13.531957,5.82978082 9.19430859,3.16750685 8.71737891,2.14347945 C8.19516797,1.41534247 7.69535156,0.141287671 7.69535156,0.141287671 L8.03619141,22.7359726 C8.03619141,22.7589041 7.33211719,29.6533973 9.12638672,30.4956986" id="Path" fill="#FFFFFF"></path>
                <path d="M9.12614063,30.4954521 C9.12614063,30.4954521 17.2792266,25.1252877 15.3712617,13.9527123 C13.531957,5.82978082 9.19430859,3.16750685 8.71737891,2.14347945 C8.19516797,1.41534247 7.69535156,0.141287671 7.69535156,0.141287671 L8.03619141,22.7359726 C8.03619141,22.7589041 7.33211719,29.6533973 9.12638672,30.4956986" id="Path" fill="#499D4A"></path>
                <path d="M7.21866797,30.7910959 C7.21866797,30.7910959 -0.434847656,25.5575342 0.0194414062,16.342274 C0.45084375,7.12676712 5.85580078,2.59865753 6.90046875,1.77953425 C7.58190234,1.05139726 7.60454297,0.778191781 7.65007031,0.0500547945 C8.127,1.07408219 8.03619141,15.363863 8.10411328,17.0474795 C8.30837109,23.532411 7.74087891,29.5626575 7.21866797,30.7910959 Z" id="Path" fill="#FFFFFF"></path>
                <path d="M7.21866797,30.7910959 C7.21866797,30.7910959 -0.434847656,25.5575342 0.0194414062,16.342274 C0.45084375,7.12676712 5.85580078,2.59865753 6.90046875,1.77953425 C7.58190234,1.05139726 7.60454297,0.778191781 7.65007031,0.0500547945 C8.127,1.07408219 8.03619141,15.363863 8.10411328,17.0474795 C8.30837109,23.532411 7.74087891,29.5626575 7.21866797,30.7910959 Z" id="Path" fill="#58AA50"></path>
            </g>
        </g>
    </g>
</svg>