<svg width="427" height="427" viewBox="0 0 427 427" fill="none" xmlns="http://www.w3.org/2000/svg">
<path d="M376.044 0H50C22.3858 0 0 22.3858 0 50V376.044C0 403.658 22.3858 426.044 50 426.044H376.044C403.658 426.044 426.044 403.658 426.044 376.044V50C426.044 22.3858 403.658 0 376.044 0Z" fill="#3178C6"/>
<path fill-rule="evenodd" clip-rule="evenodd" d="M263.73 339.024V380.68C270.502 384.152 278.511 386.755 287.758 388.491C297.004 390.227 306.75 391.095 316.994 391.095C326.979 391.095 336.464 390.14 345.45 388.231C354.435 386.321 362.314 383.176 369.086 378.793C375.858 374.41 381.219 368.683 385.17 361.61C389.12 354.537 391.095 345.793 391.095 335.379C391.095 327.829 389.966 321.212 387.709 315.527C385.452 309.843 382.196 304.788 377.942 300.362C373.688 295.936 368.587 291.966 362.64 288.451C356.693 284.936 349.986 281.617 342.519 278.492C337.05 276.236 332.144 274.045 327.803 271.918C323.462 269.792 319.773 267.623 316.734 265.41C313.695 263.197 311.351 260.853 309.702 258.38C308.052 255.907 307.227 253.108 307.227 249.984C307.227 247.12 307.965 244.538 309.441 242.238C310.917 239.938 313.001 237.964 315.692 236.315C318.383 234.666 321.683 233.386 325.59 232.475C329.496 231.564 333.837 231.108 338.612 231.108C342.085 231.108 345.753 231.369 349.617 231.889C353.48 232.41 357.366 233.213 361.272 234.297C365.179 235.382 368.978 236.749 372.668 238.398C376.357 240.047 379.765 241.956 382.891 244.126V205.203C376.553 202.773 369.629 200.972 362.119 199.801C354.609 198.629 345.992 198.043 336.268 198.043C326.371 198.043 316.994 199.107 308.139 201.233C299.283 203.359 291.491 206.678 284.763 211.191C278.034 215.704 272.716 221.453 268.809 228.44C264.902 235.426 262.949 243.779 262.949 253.498C262.949 265.909 266.53 276.496 273.693 285.261C280.856 294.027 291.73 301.447 306.316 307.522C312.046 309.865 317.385 312.164 322.334 314.421C327.283 316.677 331.558 319.02 335.161 321.45C338.764 323.88 341.608 326.527 343.691 329.391C345.775 332.255 346.817 335.509 346.817 339.154C346.817 341.845 346.166 344.34 344.864 346.639C343.561 348.939 341.586 350.935 338.938 352.628C336.29 354.32 332.991 355.643 329.041 356.598C325.09 357.553 320.467 358.03 315.171 358.03C306.142 358.03 297.2 356.446 288.344 353.278C279.488 350.111 271.284 345.359 263.73 339.024ZM193.7 236.389H247.139V202.204H98.1895V236.389H151.367V388.598H193.7V236.389Z" fill="white"/>
</svg>
