<?xml version="1.0" encoding="UTF-8"?>
<svg width="60px" height="52px" viewBox="0 0 60 52" version="1.1" xmlns="http://www.w3.org/2000/svg" xmlns:xlink="http://www.w3.org/1999/xlink">
    <!-- Generator: Sketch 52.5 (67469) - http://www.bohemiancoding.com/sketch -->
    <title>redis</title>
    <desc>Created with Sketch.</desc>
    <g id="Page-1" stroke="none" stroke-width="1" fill="none" fill-rule="evenodd">
        <g id="Desktop-HD-Copy" transform="translate(-671.000000, -2232.000000)">
            <g id="redis" transform="translate(671.000000, 2232.000000)">
                <path d="M57.6492188,39.9319818 C54.4471875,41.6151273 37.86,48.4930727 34.3286719,50.3497091 C30.7973437,52.2065818 28.835625,52.1886182 26.0458594,50.8437091 C23.2563281,49.4988 5.60460937,42.3081455 2.42484375,40.7753273 C0.83578125,40.0095091 0,39.3628182 0,38.7520545 L0,32.6359091 C0,32.6359091 22.9804688,27.5907273 26.6903906,26.2484182 C30.4000781,24.9061091 31.6872656,24.8576545 34.8442969,26.0238727 C38.0017969,27.1905636 56.8797656,30.6254 60,31.7779091 L59.9985937,37.8075455 C59.9990625,38.4121636 59.2790625,39.0754 57.6492188,39.9319818" id="Path" fill="#912626"></path>
                <path d="M57.6480469,33.852 C54.44625,35.5344364 37.8595313,42.4126182 34.3282031,44.2690182 C30.7971094,46.1261273 28.8353906,46.1079273 26.0458594,44.7630182 C23.2560938,43.4190545 5.60507813,36.2272182 2.42554688,34.6953455 C-0.753984375,33.1625273 -0.820546875,32.1076364 2.30273438,30.8742909 C5.42601563,29.6404727 22.9802344,22.6949273 26.690625,21.3526182 C30.4003125,20.0107818 31.6872656,19.9618545 34.8442969,21.1285455 C38.0015625,22.2947636 54.489375,28.9131818 57.6091406,30.0654545 C60.7300781,31.2191455 60.8498438,32.1690909 57.6480469,33.852" id="Path" fill="#C6302B"></path>
                <path d="M57.6492188,30.0356727 C54.4471875,31.7190545 37.86,38.5967636 34.3286719,40.4541091 C30.7973437,42.3102727 28.835625,42.2923091 26.0458594,40.9474 C23.2560937,39.6032 5.60460937,32.4118364 2.42484375,30.8790182 C0.83578125,30.1132 0,29.4674545 0,28.8564545 L0,22.7396 C0,22.7396 22.9804688,17.6946545 26.6903906,16.3523455 C30.4000781,15.0100364 31.6872656,14.9613455 34.8442969,16.1278 C38.0020313,17.2942545 56.88,20.7283818 60,21.8811273 L59.9985937,27.9114727 C59.9990625,28.5158545 59.2790625,29.1790909 57.6492188,30.0356727" id="Path" fill="#912626"></path>
                <path d="M57.6480469,23.9556909 C54.44625,25.6386 37.8595313,32.5163091 34.3282031,34.3734182 C30.7971094,36.2298182 28.8353906,36.2116182 26.0458594,34.8667091 C23.2560938,33.5227455 5.60507813,26.3311455 2.42554688,24.7990364 C-0.753984375,23.2666909 -0.820546875,22.2115636 2.30273438,20.9777455 C5.42601563,19.7446364 22.9804688,12.7986182 26.690625,11.4565455 C30.4003125,10.1144727 31.6872656,10.0657818 34.8442969,11.2322364 C38.0015625,12.3984545 54.489375,19.0164 57.6091406,20.1691455 C60.7300781,21.3226 60.8498438,22.2727818 57.6480469,23.9556909" id="Path" fill="#C6302B"></path>
                <path d="M57.6492188,19.7725273 C54.4471875,21.4554364 37.86,28.3336182 34.3286719,30.1909636 C30.7973437,32.0473636 28.835625,32.0291636 26.0458594,30.6842545 C23.2560937,29.3400545 5.60460937,22.1484545 2.42484375,20.6163455 C0.83578125,19.8498182 0,19.2038364 0,18.5935455 L0,12.4764545 C0,12.4764545 22.9804688,7.43174545 26.6903906,6.08967273 C30.4000781,4.74712727 31.6872656,4.69890909 34.8442969,5.86512727 C38.0020313,7.03158182 56.88,10.4657091 60,11.6184545 L59.9985937,17.6485636 C59.9990625,18.2524727 59.2790625,18.9157091 57.6492188,19.7725273" id="Path" fill="#912626"></path>
                <path d="M57.6480469,13.6925455 C54.44625,15.3754545 37.8595313,22.2536364 34.3282031,24.1100364 C30.7971094,25.9664364 28.8353906,25.9482364 26.0458594,24.6040364 C23.2563281,23.2591273 5.60507813,16.068 2.42578125,14.5356545 C-0.753984375,13.0035455 -0.8203125,11.9481818 2.30273438,10.7146 C5.42601563,9.48125455 22.9804688,2.53618182 26.690625,1.19363636 C30.4003125,-0.148672727 31.6872656,-0.196890909 34.8442969,0.969563636 C38.0015625,2.13601818 54.489375,8.75396364 57.6091406,9.90670909 C60.7300781,11.0592182 60.8498438,12.0096364 57.6480469,13.6925455" id="Path" fill="#C6302B"></path>
                <path d="M37.3319531,7.74256364 L32.1733594,8.28265455 L31.0185938,11.0849818 L29.1534375,7.95789091 L23.1967969,7.41803636 L27.6414844,5.80154545 L26.3078906,3.3202 L30.4692188,4.96150909 L34.3921875,3.66623636 L33.331875,6.23196364 L37.3319531,7.74256364 M30.710625,21.3377273 L21.0832031,17.3108 L34.8785156,15.1752545 L30.710625,21.3377273 M17.3629688,9.3002 C21.4352344,9.3002 24.7364063,10.5907455 24.7364063,12.1824182 C24.7364063,13.7745636 21.4352344,15.0648727 17.3629688,15.0648727 C13.2907031,15.0648727 9.98953125,13.7743273 9.98953125,12.1824182 C9.98953125,10.5907455 13.2907031,9.3002 17.3629688,9.3002" id="Shape" fill="#FFFFFF" fill-rule="nonzero"></path>
                <polyline id="Path" fill="#621B1C" points="43.4285156 8.50861818 51.5932031 11.7624 43.4355469 15.0131091 43.4285156 8.50838182"></polyline>
                <polyline id="Path" fill="#9A2928" points="34.3957031 12.1119818 43.4285156 8.50861818 43.4355469 15.0131091 42.5498438 15.3624545 34.3957031 12.1119818"></polyline>
            </g>
        </g>
    </g>
</svg>